<svg xmlns="http://www.w3.org/2000/svg" enable-background="new 0 0 32 32" viewBox="0 0 32 32" id="rust"><path fill="#FFE6E2" d="M26,32H6c-3.314,0-6-2.686-6-6V6c0-3.314,2.686-6,6-6h20c3.314,0,6,2.686,6,6v20C32,29.314,29.314,32,26,32z"></path><path fill="#FFE6E2" d="M26,32H6c-3.314,0-6-2.686-6-6V6c0-3.314,2.686-6,6-6h20c3.314,0,6,2.686,6,6v20C32,29.314,29.314,32,26,32z"></path><g><path fill="#FC573B" d="M8.11,16.194L8.11,16.194l0.672,0.417c0.005,0.066,0.012,0.131,0.019,0.196l-0.577,0.539c-0.045,0.043-0.074,0.103-0.074,0.169c0,0.099,0.062,0.183,0.149,0.216l0.001,0.001l0.738,0.276c0.018,0.064,0.038,0.128,0.058,0.19l-0.46,0.639c-0.028,0.038-0.044,0.084-0.044,0.136c0,0.115,0.084,0.21,0.194,0.228h0.001l0.778,0.126c0.03,0.059,0.061,0.117,0.094,0.175l-0.327,0.718c-0.014,0.028-0.021,0.061-0.021,0.096c0,0.128,0.103,0.231,0.231,0.231c0.003,0,0.006,0,0.01,0l0.788-0.028c0.041,0.051,0.082,0.102,0.125,0.152l-0.181,0.77c-0.004,0.016-0.006,0.034-0.006,0.053c0,0.128,0.103,0.231,0.231,0.231c0.019,0,0.037-0.002,0.055-0.007h-0.001l0.769-0.181c0.05,0.043,0.101,0.084,0.152,0.124l-0.028,0.79c0,0.003,0,0.007,0,0.01c0,0.127,0.103,0.23,0.229,0.23c0.035,0,0.069-0.008,0.099-0.022l-0.001,0.001l0.717-0.327c0.058,0.032,0.116,0.063,0.175,0.094l0.127,0.778c0.019,0.111,0.114,0.194,0.229,0.194c0.05,0,0.096-0.016,0.135-0.043l-0.001,0.001l0.639-0.461c0.063,0.02,0.126,0.04,0.19,0.058l0.276,0.738c0.033,0.089,0.117,0.151,0.216,0.151c0.067,0,0.127-0.028,0.169-0.074l0.539-0.577c0.065,0.007,0.13,0.014,0.196,0.02l0.416,0.672C15.846,23.958,15.918,24,16.001,24c0.082,0,0.155-0.043,0.196-0.108l0.001-0.001l0.416-0.672c0.065-0.006,0.131-0.012,0.196-0.02l0.538,0.577c0.043,0.045,0.102,0.072,0.169,0.072c0.099,0,0.183-0.061,0.217-0.148l0.001-0.001l0.276-0.738c0.064-0.018,0.128-0.038,0.19-0.058l0.639,0.461c0.038,0.028,0.084,0.044,0.136,0.044c0.115,0,0.21-0.084,0.227-0.195v-0.001l0.127-0.778c0.059-0.03,0.117-0.062,0.175-0.094l0.717,0.327c0.028,0.013,0.061,0.02,0.095,0.02c0.128,0,0.232-0.104,0.232-0.232c0-0.002,0-0.004,0-0.007l-0.028-0.79c0.051-0.041,0.102-0.082,0.151-0.124l0.769,0.181c0.015,0.004,0.034,0.006,0.053,0.006c0.128,0,0.232-0.104,0.232-0.232c0-0.018-0.002-0.036-0.006-0.053v0.001l-0.181-0.77c0.042-0.05,0.084-0.101,0.124-0.152l0.79,0.028c0.003,0,0.007,0,0.011,0c0.127,0,0.23-0.103,0.23-0.23c0-0.035-0.008-0.069-0.022-0.099l0.001,0.001L22.342,19.5c0.032-0.058,0.063-0.116,0.094-0.175l0.777-0.126c0.111-0.02,0.193-0.115,0.193-0.229c0-0.051-0.016-0.097-0.043-0.135l0.001,0.001l-0.46-0.639l0.058-0.19l0.738-0.276c0.088-0.034,0.151-0.117,0.151-0.217c0-0.067-0.028-0.127-0.074-0.169l-0.577-0.539c0.007-0.065,0.014-0.13,0.019-0.196l0.671-0.416C23.957,16.153,24,16.08,24,15.997s-0.044-0.155-0.11-0.196l-0.001-0.001l-0.001,0.002l-0.672-0.416c-0.007-0.083-0.012-0.141-0.018-0.196l0.576-0.537c0.044-0.043,0.072-0.102,0.072-0.169c0-0.099-0.061-0.183-0.148-0.217l-0.001-0.001l-0.738-0.276c-0.023-0.084-0.04-0.14-0.057-0.192l0.459-0.638c0.027-0.038,0.044-0.084,0.044-0.135c0-0.115-0.084-0.21-0.193-0.228h-0.001l-0.778-0.126c-0.039-0.076-0.066-0.128-0.093-0.176l0.326-0.717c0.034-0.073,0.026-0.158-0.018-0.224c-0.045-0.066-0.12-0.105-0.201-0.103l-0.79,0.028c-0.047-0.06-0.088-0.109-0.13-0.157l0.005,0.005l0.182-0.769c0.004-0.015,0.006-0.034,0.006-0.053c0-0.128-0.104-0.232-0.232-0.232c-0.019,0-0.037,0.002-0.054,0.006h0.001l-0.769,0.182c-0.035-0.03-0.084-0.071-0.134-0.111l-0.018-0.013l0.028-0.79c0-0.003,0-0.007,0-0.011c0-0.127-0.103-0.23-0.229-0.23c-0.035,0-0.069,0.008-0.099,0.022l0.001-0.001l-0.717,0.327c-0.058-0.032-0.116-0.063-0.175-0.094l-0.127-0.778c-0.02-0.111-0.115-0.193-0.229-0.193c-0.051,0-0.097,0.016-0.135,0.043l0.001-0.001l-0.64,0.461c-0.023-0.009-0.086-0.029-0.15-0.047l-0.04-0.01L17.73,8.299c-0.034-0.088-0.119-0.149-0.217-0.149c-0.066,0-0.126,0.028-0.168,0.072L16.807,8.8c-0.039-0.005-0.105-0.012-0.174-0.018l-0.022-0.001l-0.416-0.672C16.155,8.043,16.082,8,15.999,8c-0.082,0-0.155,0.043-0.196,0.109l-0.001,0.001l-0.416,0.672c-0.065,0.005-0.131,0.012-0.196,0.019l-0.539-0.578c-0.043-0.045-0.102-0.074-0.169-0.074c-0.099,0-0.183,0.062-0.216,0.149l-0.001,0.001l-0.276,0.738c-0.064,0.018-0.127,0.038-0.19,0.057l-0.639-0.461c-0.037-0.027-0.084-0.043-0.134-0.043c-0.115,0-0.21,0.083-0.229,0.192v0.001l-0.127,0.778c-0.076,0.039-0.128,0.066-0.176,0.093L11.78,9.329c-0.028-0.014-0.061-0.021-0.096-0.021c-0.128,0-0.231,0.103-0.231,0.231c0,0.003,0,0.006,0,0.009l0.028,0.79c-0.051,0.04-0.102,0.082-0.152,0.125l-0.769-0.182c-0.015-0.004-0.034-0.006-0.053-0.006c-0.128,0-0.232,0.104-0.232,0.232c0,0.019,0.002,0.037,0.006,0.054V10.56l0.181,0.769c-0.042,0.05-0.084,0.101-0.124,0.151l-0.79-0.028c-0.003,0-0.005,0-0.009,0c-0.128,0-0.231,0.103-0.231,0.231c0,0.035,0.007,0.068,0.022,0.097L9.33,11.779l0.327,0.718c-0.016,0.026-0.047,0.084-0.078,0.141l-0.016,0.034l-0.777,0.126c-0.111,0.02-0.193,0.115-0.193,0.229c0,0.051,0.016,0.097,0.043,0.135l-0.001-0.001l0.46,0.639c-0.02,0.063-0.039,0.126-0.058,0.19l-0.738,0.276c-0.088,0.034-0.149,0.119-0.149,0.217c0,0.066,0.028,0.126,0.072,0.168l0.577,0.538c-0.005,0.039-0.012,0.105-0.018,0.174l-0.001,0.022L8.11,15.802C8.043,15.843,8,15.916,8,15.999C8,16.082,8.043,16.154,8.11,16.194z M12.56,21.352l-0.003,0.001c-0.03,0.007-0.065,0.011-0.1,0.011c-0.262,0-0.476-0.213-0.476-0.476c0-0.227,0.159-0.418,0.373-0.465l0.003-0.001c0.03-0.007,0.065-0.011,0.1-0.011c0.263,0,0.476,0.213,0.476,0.476C12.933,21.114,12.774,21.305,12.56,21.352z M19.392,21.375L19.392,21.375l0.002,0.001C19.393,21.375,19.393,21.375,19.392,21.375z M19.493,21.386c-0.034,0-0.069-0.004-0.101-0.011c-0.215-0.048-0.374-0.238-0.374-0.465c0-0.263,0.213-0.476,0.476-0.476c0.034,0,0.068,0.004,0.1,0.011c0.216,0.048,0.375,0.238,0.375,0.465C19.968,21.172,19.755,21.386,19.493,21.386z M20.712,19.412c-0.173,0.235-0.35,0.442-0.541,0.635l-1.005-0.216l0.001,0.001c-0.028-0.006-0.059-0.009-0.091-0.009c-0.207,0-0.381,0.146-0.423,0.34l-0.001,0.003l-0.238,1.113c-0.736,0.334-1.552,0.52-2.413,0.52c-0.003,0-0.005,0-0.009,0c-0.877,0-1.709-0.196-2.455-0.544l-0.238-1.112c-0.043-0.197-0.216-0.343-0.422-0.343c-0.032,0-0.064,0.003-0.095,0.01l0.003-0.001l-0.982,0.211c-0.177-0.182-0.344-0.378-0.497-0.583l-0.011-0.015h4.778c0.054,0,0.09-0.01,0.09-0.059V17.67c0-0.049-0.036-0.059-0.09-0.059h-1.398v-1.072h1.512c0.138,0,0.738,0.039,0.929,0.806c0.06,0.236,0.192,1.003,0.282,1.249c0.09,0.276,0.456,0.826,0.846,0.826h2.381c0.031-0.001,0.061-0.003,0.09-0.01L20.712,19.412z M14.677,14.957v-1.101h1.973c0.102,0,0.719,0.118,0.719,0.58c0,0.384-0.474,0.521-0.863,0.521H14.677z M21.207,14.021L21.207,14.021c0.106-0.241,0.387-0.349,0.627-0.242c0.169,0.076,0.283,0.242,0.283,0.436c0,0.263-0.213,0.476-0.476,0.476c-0.263,0-0.476-0.213-0.476-0.476C21.165,14.145,21.18,14.08,21.207,14.021z M15.648,9.544v0.001c0.085-0.081,0.2-0.132,0.328-0.132c0.263,0,0.475,0.213,0.475,0.475c0,0.135-0.057,0.257-0.147,0.344c-0.083,0.072-0.192,0.115-0.311,0.115c-0.263,0-0.476-0.213-0.476-0.476C15.517,9.745,15.567,9.63,15.648,9.544z M14.878,10.204l0.037-0.006l0.732,0.768c0.079,0.083,0.19,0.134,0.313,0.134c0.116,0,0.221-0.046,0.299-0.12l0.818-0.783c1.725,0.332,3.155,1.384,3.988,2.824l0.015,0.028l-0.56,1.266c-0.024,0.052-0.037,0.112-0.037,0.176c0,0.176,0.105,0.327,0.254,0.396l0.003,0.001l1.079,0.479c0.019,0.192,0.028,0.385,0.028,0.581h0.001c0,0.146-0.005,0.291-0.016,0.434h-0.6c-0.06,0-0.084,0.039-0.084,0.099v0.275c0,0.649-0.366,0.79-0.686,0.826c-0.305,0.034-0.643-0.128-0.685-0.315c-0.18-1.013-0.48-1.23-0.954-1.603c0.588-0.373,1.199-0.924,1.199-1.662c0-0.796-0.546-1.298-0.918-1.544c-0.522-0.344-1.099-0.413-1.255-0.413h-6.204C12.482,11.111,13.606,10.451,14.878,10.204z M11.43,14.289l0.001,0.003l-0.211-0.477h0.829v3.737h-1.672c-0.142-0.479-0.223-1.031-0.223-1.601c0-0.214,0.013-0.424,0.035-0.632l1.021-0.454c0.153-0.069,0.258-0.221,0.258-0.396C11.468,14.404,11.454,14.344,11.43,14.289z M10.315,13.728c0.188,0,0.35,0.109,0.427,0.267l0.001,0.003v0.001c0.03,0.061,0.047,0.132,0.047,0.207c0,0.263-0.213,0.476-0.476,0.476c-0.198,0-0.368-0.121-0.439-0.294l-0.001-0.003c-0.022-0.053-0.035-0.115-0.035-0.18C9.839,13.941,10.053,13.728,10.315,13.728z"></path></g></svg>