<svg xmlns="http://www.w3.org/2000/svg"  viewBox="0 0 100 100" width="100px" height="100px"><path fill="#fbb97f" d="M71,82H29c-6.075,0-11-4.925-11-11V29c0-6.075,4.925-11,11-11h42c6.075,0,11,4.925,11,11v42	C82,77.075,77.075,82,71,82z"/><path fill="#f5905f" d="M58.5,48.5c1.708-9.997-0.367-13.745-4-21l0.303-0.398L42.827,18H29.118	c-6.079,0-11.006,4.931-11,11.01l0.015,16.33l8,8.649l0.367-0.252c6.439,3.942,11,4.763,15.5,4.763c4.51,0,7.567-1.38,9.5-2	c-9.602-5.828-21-23-21-23s13.849,10.15,18,13c-2.335-2.333-9.664-11.854-12-16C39.744,34.258,54.608,45.909,58.5,48.5z"/><path fill="#fff" d="M30.5,33.5c0,0,11.398,17.172,21,23c-1.933,0.62-4.99,2-9.5,2c-4.5,0-9.061-0.821-15.5-4.763	C29.894,58.382,35.823,67.76,50,67.5c0.454-0.008,0.916-0.026,1.387-0.054c5.32-0.259,8.564-2.15,11.549-3.315	c0.868-0.339,1.723-0.608,2.564-0.615c2-0.016,3.252,0.859,5,3.984c0,0,0.999-1,0.999-3.5c0-2.774-1.07-5.484-3.999-8.5c0,0,1-2,1-6	c0-6-2.366-14.5-14-22c0,0,5,7,5,15c0,4-1,6-1,6c-3.892-2.591-18.756-14.242-22-18c2.336,4.147,9.665,13.667,12,16	C44.348,43.65,30.5,33.5,30.5,33.5z"/><path fill="#1f212b" d="M71,83H29c-6.617,0-12-5.383-12-12V29c0-6.617,5.383-12,12-12h42c6.617,0,12,5.383,12,12v42	C83,77.617,77.617,83,71,83z M29,19c-5.514,0-10,4.486-10,10v42c0,5.514,4.486,10,10,10h42c5.514,0,10-4.486,10-10V29	c0-5.514-4.486-10-10-10H29z"/><path fill="#1f212b" d="M49.415,68.006c-13.25,0-19.179-8.23-22.743-13.178l-0.576-0.796	c-0.141-0.192-0.125-0.458,0.036-0.634c0.163-0.175,0.425-0.211,0.629-0.088C33.492,57.432,38.063,58,42,58	c3.695,0,6.361-0.937,8.307-1.62c0.016-0.006,0.032-0.012,0.048-0.018c-9.372-6.258-19.818-21.902-20.272-22.586	c-0.134-0.202-0.104-0.471,0.071-0.638c0.175-0.169,0.445-0.186,0.641-0.042c0.111,0.081,9.001,6.596,14.621,10.615	c-3.155-3.872-7.593-9.844-9.352-12.967c-0.126-0.224-0.062-0.507,0.148-0.654c0.211-0.148,0.499-0.11,0.666,0.082	c3.115,3.608,16.924,14.459,21.385,17.561C58.543,46.91,59,45.158,59,42.5c0-7.75-4.858-14.641-4.907-14.709	c-0.14-0.195-0.121-0.463,0.045-0.636c0.166-0.175,0.431-0.206,0.633-0.075C64.212,33.166,69,40.71,69,49.5	c0,3.195-0.622,5.155-0.911,5.893c2.666,2.824,3.91,5.566,3.91,8.607c0,2.676-1.099,3.807-1.146,3.854	c-0.11,0.111-0.267,0.163-0.422,0.142c-0.155-0.021-0.292-0.114-0.368-0.251c-1.773-3.169-2.949-3.748-4.559-3.728	c-0.811,0.007-1.662,0.297-2.386,0.58c-0.579,0.226-1.167,0.479-1.779,0.742c-2.605,1.122-5.558,2.394-9.928,2.605	C50.939,67.973,50.47,67.991,50.01,68C49.81,68.004,49.611,68.005,49.415,68.006z M28.283,55.347	c3.59,4.892,9.52,11.915,21.708,11.653c0.447-0.009,0.903-0.025,1.367-0.054c4.195-0.204,7.059-1.438,9.586-2.525	c0.623-0.269,1.222-0.526,1.811-0.756c0.81-0.316,1.769-0.641,2.742-0.648c2.112-0.005,3.432,0.888,5.021,3.519	c0.23-0.5,0.481-1.324,0.481-2.535c0-2.851-1.226-5.441-3.858-8.151c-0.147-0.152-0.183-0.381-0.089-0.571	C67.062,55.259,68,53.309,68,49.5c0-7.81-3.978-14.616-11.831-20.26C57.68,31.919,60,36.939,60,42.5c0,4.071-1.01,6.138-1.053,6.224	c-0.064,0.128-0.18,0.223-0.319,0.26c-0.139,0.034-0.287,0.012-0.406-0.067c-3.062-2.038-13.313-9.992-18.948-15.027	c3.155,4.558,7.865,10.545,9.579,12.258c0.183,0.183,0.196,0.475,0.031,0.673c-0.165,0.197-0.455,0.239-0.668,0.093	c-3.054-2.096-11.437-8.203-15.601-11.245c3.526,4.94,11.91,16.015,19.144,20.405c0.167,0.102,0.26,0.292,0.237,0.486	s-0.157,0.357-0.344,0.418c-0.309,0.099-0.646,0.217-1.014,0.347C48.738,57.991,45.866,59,42,59	C38.33,59,34.134,58.527,28.283,55.347z"/><path fill="#1f212b" d="M54.5,23h-1c-0.276,0-0.5-0.224-0.5-0.5s0.224-0.5,0.5-0.5h1c0.276,0,0.5,0.224,0.5,0.5	S54.776,23,54.5,23z"/><path fill="#1f212b" d="M60.5,23h-3c-0.276,0-0.5-0.224-0.5-0.5s0.224-0.5,0.5-0.5h3c0.276,0,0.5,0.224,0.5,0.5	S60.776,23,60.5,23z"/><path fill="#1f212b" d="M66.5,78h-33C27.159,78,22,72.841,22,66.5v-11c0-0.276,0.224-0.5,0.5-0.5s0.5,0.224,0.5,0.5v11	C23,72.29,27.71,77,33.5,77h33C72.29,77,77,72.29,77,66.5v-33C77,27.71,72.29,23,66.5,23h-3c-0.276,0-0.5-0.224-0.5-0.5	s0.224-0.5,0.5-0.5h3C72.841,22,78,27.159,78,33.5v33C78,72.841,72.841,78,66.5,78z"/></svg>