<svg xmlns="http://www.w3.org/2000/svg"  viewBox="0 0 100 100" width="100px" height="100px"><path fill="#375ca9" d="M71,82H29c-6.075,0-11-4.925-11-11V29c0-6.075,4.925-11,11-11h42c6.075,0,11,4.925,11,11v42	C82,77.075,77.075,82,71,82z"/><path fill="#3070b7" d="M64,59c-15.46,0-28-12.54-28-28c0-4.69,1.16-9.11,3.2-13h-5.54C31.95,21.99,31,26.38,31,31 c0,18.23,14.77,33,33,33c6.64,0,12.83-1.96,18-5.34v-6.21C77.13,56.53,70.85,59,64,59z"/><path fill="#3a83c1" d="M64,54c-12.7,0-23-10.3-23-23c0-4.82,1.49-9.3,4.05-13H39.2c-2.04,3.89-3.2,8.31-3.2,13 c0,15.46,12.54,28,28,28c6.85,0,13.13-2.47,18-6.55V45.3C77.8,50.6,71.29,54,64,54z"/><path fill="#40a6dd" d="M64,49c-9.94,0-18-8.06-18-18h-5c0,12.7,10.3,23,23,23c7.29,0,13.8-3.4,18-8.7V31 C82,40.94,73.94,49,64,49z"/><path fill="#31c4f3" d="M82,29v2c0,9.94-8.06,18-18,18s-18-8.06-18-18h-4V18h29c3.63,0,6.85,1.76,8.86,4.47 C81.2,24.29,82,26.55,82,29z"/><path fill="#31c4f3" d="M58.5,48.5c1.708-9.997-0.367-13.745-4-21l0.303-0.398L42.827,18H29.118 c-6.079,0-11.006,4.931-11,11.01l0.015,16.33l8,8.649l0.367-0.252c6.439,3.942,11,4.763,15.5,4.763c4.51,0,7.567-1.38,9.5-2 c-9.602-5.828-21-23-21-23s13.849,10.15,18,13c-2.335-2.333-9.664-11.854-12-16C39.744,34.258,54.608,45.909,58.5,48.5z"/><path fill="#40a6dd" d="M26.5,53.737c6.439,3.942,11,4.763,15.5,4.763c4.51,0,7.567-1.38,9.5-2c-9.602-5.828-21-23-21-23 s13.849,10.15,18,13c-2.335-2.333-9.664-11.854-12-16c3.244,3.758,18.108,15.409,22,18c0,0,1-2,1-6c0-8-5-15-5-15l0.303-0.398 l-12.5-9.5l-3.948,0.041c0.463,1.698,0.729,3.512,0.729,5.441c0,1.511-0.167,2.909-0.485,4.216l-8.824-4.412 c-3.097,0.88-5.58,3.215-6.669,6.219l8.06,8.06c-3.195,1.741-7.681,2.917-12.083,2.917c-0.322,0-0.641-0.025-0.962-0.038 l0.011,5.295l8,8.649L26.5,53.737C26.5,53.737,26.5,53.738,26.5,53.737C26.5,53.738,26.5,53.737,26.5,53.737z"/><path fill="#40a6dd" d="M33.444,35.653C37.745,38.794,45.557,44.48,48.5,46.5c-2.191-2.189-8.778-10.705-11.512-15.173 c-0.773,1.345-1.745,2.588-2.909,3.752C33.884,35.274,33.67,35.465,33.444,35.653z"/><path fill="#3a83c1" d="M43.423,40.387c-0.421,0.524-0.867,1.037-1.357,1.532c2.636,1.904,5.064,3.64,6.434,4.581 C47.482,45.482,45.513,43.097,43.423,40.387z"/><path fill="#3a83c1" d="M38.636,44.322C35.476,45.93,31.198,47,27,47c-3.004,0-5.956-0.591-8.771-1.556l7.904,8.545 l0.367-0.252c6.439,3.942,11,4.763,15.5,4.763c4.51,0,7.567-1.38,9.5-2C47.174,53.874,42.485,48.946,38.636,44.322z"/><path fill="#3a83c1" d="M54.5,27.5l0.303-0.398L43.57,18.565C45.623,21.73,47,25.569,47,30c0,1.505-0.166,2.897-0.481,4.199 L37.87,29.52c-0.23,0.56-0.48,1.1-0.77,1.62c0.002,0.003,0.003,0.011,0.006,0.014c1.606,1.658,4.602,4.248,7.894,6.95l0,0 c5.247,4.306,11.233,8.887,13.5,10.396C60.208,38.503,58.133,34.755,54.5,27.5z"/><path fill="#3070b7" d="M34,53c-3.813,0-7.544-0.942-11.012-2.411l3.145,3.4l0.367-0.252c6.439,3.942,11,4.763,15.5,4.763 c4.51,0,7.567-1.38,9.5-2c-2.271-1.379-4.643-3.396-6.94-5.667C41.54,52.154,37.737,53,34,53z"/><path fill="#3070b7" d="M54.5,27.5l0.303-0.398l-5.279-4.012C52.141,26.51,54,30.854,54,36c0,1.765-0.233,3.373-0.667,4.861 L45.79,36.46c-0.24,0.56-0.5,1.11-0.8,1.64c2.372,1.944,4.894,3.947,7.155,5.694c2.746,2.124,5.111,3.878,6.355,4.706 C60.208,38.503,58.133,34.755,54.5,27.5z"/><path fill="#444445" d="M30.5,33.5c0,0,11.398,17.172,21,23c-1.933,0.62-4.99,2-9.5,2c-4.5,0-9.061-0.821-15.5-4.763	C29.894,58.382,35.823,67.76,50,67.5c0.454-0.008,0.916-0.026,1.387-0.054c5.32-0.259,8.564-2.15,11.549-3.315	c0.868-0.339,1.723-0.608,2.564-0.615c2-0.016,3.252,0.859,5,3.984c0,0,0.999-1,0.999-3.5c0-2.774-1.07-5.484-3.999-8.5c0,0,1-2,1-6	c0-6-2.366-14.5-14-22c0,0,5,7,5,15c0,4-1,6-1,6c-3.892-2.591-18.756-14.242-22-18c2.336,4.147,9.665,13.667,12,16	C44.348,43.65,30.5,33.5,30.5,33.5z"/><path fill="#1f212b" d="M71,83H29c-6.617,0-12-5.383-12-12V29c0-6.617,5.383-12,12-12h42c6.617,0,12,5.383,12,12v42	C83,77.617,77.617,83,71,83z M29,19c-5.514,0-10,4.486-10,10v42c0,5.514,4.486,10,10,10h42c5.514,0,10-4.486,10-10V29	c0-5.514-4.486-10-10-10H29z"/><path fill="#1f212b" d="M67.5,78h-35C26.71,78,22,73.29,22,67.5v-35C22,26.71,26.71,22,32.5,22h34c0.276,0,0.5,0.224,0.5,0.5	S66.776,23,66.5,23h-34c-5.238,0-9.5,4.262-9.5,9.5v35c0,5.238,4.262,9.5,9.5,9.5h35c5.238,0,9.5-4.262,9.5-9.5v-18	c0-0.276,0.224-0.5,0.5-0.5s0.5,0.224,0.5,0.5v18C78,73.29,73.29,78,67.5,78z"/><path fill="#1f212b" d="M77.5,40c-0.276,0-0.5-0.224-0.5-0.5v-2c0-0.276,0.224-0.5,0.5-0.5s0.5,0.224,0.5,0.5v2	C78,39.776,77.776,40,77.5,40z"/><path fill="#1f212b" d="M77.5,47c-0.276,0-0.5-0.224-0.5-0.5v-4c0-0.276,0.224-0.5,0.5-0.5s0.5,0.224,0.5,0.5v4	C78,46.776,77.776,47,77.5,47z"/><path fill="#1f212b" d="M49.415,68.006c-13.25,0-19.179-8.23-22.743-13.178l-0.576-0.796	c-0.141-0.192-0.125-0.458,0.036-0.634c0.163-0.175,0.425-0.211,0.629-0.088C33.492,57.432,38.063,58,42,58	c3.695,0,6.361-0.937,8.307-1.62c0.016-0.006,0.032-0.012,0.048-0.018c-9.372-6.258-19.818-21.902-20.272-22.586	c-0.134-0.202-0.104-0.471,0.071-0.638c0.175-0.169,0.445-0.186,0.641-0.042c0.111,0.081,9.001,6.596,14.621,10.615	c-3.155-3.872-7.593-9.844-9.352-12.967c-0.126-0.224-0.062-0.507,0.148-0.654c0.211-0.148,0.499-0.11,0.666,0.082	c3.115,3.608,16.924,14.459,21.385,17.561C58.543,46.91,59,45.158,59,42.5c0-7.75-4.858-14.641-4.907-14.709	c-0.14-0.195-0.121-0.463,0.045-0.636c0.166-0.175,0.431-0.206,0.633-0.075C64.212,33.166,69,40.71,69,49.5	c0,3.195-0.622,5.155-0.911,5.893c2.666,2.824,3.91,5.566,3.91,8.607c0,2.676-1.099,3.807-1.146,3.854	c-0.11,0.111-0.267,0.163-0.422,0.142s-0.292-0.114-0.368-0.251c-1.773-3.169-2.949-3.748-4.559-3.728	c-0.811,0.007-1.662,0.297-2.386,0.58c-0.579,0.226-1.167,0.479-1.779,0.742c-2.605,1.122-5.558,2.394-9.928,2.605	C50.939,67.973,50.47,67.991,50.01,68C49.81,68.004,49.611,68.005,49.415,68.006z M28.283,55.347	c3.59,4.892,9.52,11.915,21.708,11.653c0.447-0.009,0.903-0.025,1.367-0.054c4.195-0.204,7.059-1.438,9.586-2.525	c0.623-0.269,1.222-0.526,1.811-0.756c0.81-0.316,1.769-0.641,2.742-0.648c2.112-0.005,3.432,0.888,5.021,3.519	c0.23-0.5,0.481-1.324,0.481-2.535c0-2.851-1.226-5.441-3.858-8.151c-0.147-0.152-0.183-0.381-0.089-0.571	C67.062,55.259,68,53.309,68,49.5c0-7.81-3.978-14.616-11.831-20.26C57.68,31.919,60,36.939,60,42.5c0,4.071-1.01,6.138-1.053,6.224	c-0.064,0.128-0.18,0.223-0.319,0.26c-0.139,0.034-0.287,0.012-0.406-0.067c-3.062-2.038-13.313-9.992-18.948-15.027	c3.155,4.558,7.865,10.545,9.579,12.258c0.183,0.183,0.196,0.475,0.031,0.673c-0.165,0.197-0.455,0.239-0.668,0.093	c-3.054-2.096-11.437-8.203-15.601-11.245c3.526,4.94,11.91,16.015,19.144,20.405c0.167,0.102,0.26,0.292,0.237,0.486	s-0.157,0.357-0.344,0.418c-0.309,0.099-0.646,0.217-1.014,0.347C48.738,57.991,45.866,59,42,59	C38.33,59,34.134,58.527,28.283,55.347z"/></svg>